# xmcd
#
# Track frame offsets: 
#        150
#        17608
#        35471
#        51030
#        68311
#        92050
#        106847
#        123598
#        125784
#        143106
#        161199
#        172861
#        189598
#        199413
#        215567
#        233040
#
# Disc length: 3417 seconds
#
# Revision: 0
# Processed by: cddbd v1.5.2PL0 Copyright (c) Steve Scherf et al.
# Submitted via: ExactAudioCopy v0.99pb4
#
DISCID=de0d5710
DTITLE=C.W. McCall - The Real McCall
DYEAR=1990
DGENRE=Classic Country
TTITLE0=Comin' Back for More
TTITLE1=Ghost Town
TTITLE2=Glenwood Canyon
TTITLE3=There Won't Be No Country Music
TTITLE4=Roy
TTITLE5=The Little Brown Sparrow
TTITLE6=Wilderness
TTITLE7=Aurora Borealis
TTITLE8=The Silverton
TTITLE9=Wolf Creek Pass
TTITLE10=Night Rider
TTITLE11=Rocky Mountain September
TTITLE12=Black Bear Road
TTITLE13=Camp Bird Mine
TTITLE14=Convoy
TTITLE15=Columbine
EXTD=
EXTT0=
EXTT1=
EXTT2=
EXTT3=
EXTT4=
EXTT5=
EXTT6=
EXTT7=
EXTT8=
EXTT9=
EXTT10=
EXTT11=
EXTT12=
EXTT13=
EXTT14=
EXTT15=
PLAYORDER=
